<?xml version="1.0" standalone="no"?>
<!DOCTYPE svg PUBLIC "-//W3C//DTD SVG 20010904//EN"
 "http://www.w3.org/TR/2001/REC-SVG-20010904/DTD/svg10.dtd">
<svg version="1.0" xmlns="http://www.w3.org/2000/svg"
 width="986.000000pt" height="1280.000000pt" viewBox="0 0 986.000000 1280.000000"
 preserveAspectRatio="xMidYMid meet">
<g transform="translate(0.000000,1280.000000) scale(0.100000,-0.100000)"
fill="#000000" stroke="none">
<path d="M4790 12789 c-47 -5 -156 -16 -244 -24 -899 -88 -1682 -435 -2222
-986 -148 -151 -176 -184 -277 -319 -210 -280 -396 -656 -498 -1011 l-33 -114
-1 -865 c0 -476 2 -1070 5 -1320 l5 -455 -85 -7 c-47 -3 -177 -12 -290 -18
-485 -27 -756 -69 -1000 -154 -81 -29 -97 -41 -129 -99 l-21 -38 0 -3238 0
-3238 47 -91 c144 -277 394 -527 665 -663 116 -58 236 -95 404 -125 137 -24
164 -25 329 -20 197 7 3231 29 6290 46 1067 6 1959 13 1982 16 51 6 96 41 123
95 20 38 20 81 20 3167 l0 3128 -30 116 c-70 275 -170 455 -366 657 -120 125
-246 219 -394 295 -116 59 -177 81 -290 105 l-75 16 -6 1065 c-7 1277 -24
1748 -69 1970 -133 651 -658 1236 -1465 1630 -503 246 -1091 405 -1690 459
-66 6 -169 15 -229 21 -127 12 -334 11 -456 -1z m451 -1239 c533 -41 997 -198
1345 -455 266 -197 462 -451 583 -758 l29 -72 -4 -1294 c-2 -712 -8 -1299 -13
-1304 -4 -4 -241 -4 -542 2 -1319 27 -1675 32 -2626 38 -557 3 -1018 10 -1025
14 -14 9 -25 822 -27 2056 -1 612 -1 624 20 685 158 462 631 829 1286 998 183
48 331 70 608 93 91 8 239 6 366 -3z"/>
</g>
</svg>
